#!OML:ASF H:\ManfredETheater\Project 1\Capture day 1\Session 1\subject.ASF
:FULLY-SPECIFIED
:DEGREES
156
root 1.85573 16.0982 -21.0623 -165.884 -31.3951 175.682
lowerback 20.8368 1.35189 -5.24331
upperback 1.21333 0.34288 0.20397
thorax -10.4133 0.320907 3.14018
lowerneck -15.7973 -9.79369 -10.5604
upperneck -2.45497 -11.9698 10.8164
head 3.03891 -5.76456 4.0206
rclavicle 7.07673e-014 -1.03368e-014
rhumerus -36.4826 -2.57347 -83.4256
rradius 71.0822
rwrist -10.8471
rhand -32.6987 -2.62856
rfingers 7.12502
rthumb -5.92333 -32.5258
lclavicle 7.07673e-014 -1.03368e-014
lhumerus -2.17467 -35.3131 85.7342
lradius 118.284
lwrist 14.1233
lhand -22.7316 -17.6315
lfingers 7.12502
lthumb 3.70227 12.3161
rfemur -62.0214 -18.5664 15.5649
rtibia 77.1667
rfoot -17.4142 -11.0709
rtoes -30.7966
lfemur -29.3994 -7.31873 -11.0059
ltibia 68.1526
lfoot -27.0365 -15.3768
ltoes -24.8597
157
root 1.8112 16.0838 -21.395 -165.134 -30.8245 175.203
lowerback 20.8545 1.22752 -5.52904
upperback 1.12748 0.119589 0.260018
thorax -10.5001 0.2377 3.43174
lowerneck -16.2588 -9.53856 -10.2421
upperneck -2.53644 -11.6536 10.5282
head 3.01179 -5.61934 3.90482
rclavicle -2.88238e-014 2.06736e-014
rhumerus -39.3397 -2.059 -83.0241
rradius 74.0256
rwrist -11.2627
rhand -32.7187 -1.84278
rfingers 7.12502
rthumb -5.94259 -31.7394
lclavicle -2.88238e-014 2.06736e-014
lhumerus -0.502814 -33.4961 84.0595
lradius 121.263
lwrist 14.1289
lhand -22.881 -17.4096
lfingers 7.12502
lthumb 3.55803 12.5405
rfemur -63.748 -18.53 15.4433
rtibia 75.5646
rfoot -17.672 -10.961
rtoes -31.3903
lfemur -27.8064 -7.38598 -11.1685
ltibia 66.66
lfoot -27.3732 -15.255
ltoes -25.4941
158
root 1.76436 16.0681 -21.7345 -164.417 -30.2425 174.784
lowerback 20.8678 1.07821 -5.7448
upperback 1.00143 -0.117212 0.323016
thorax -10.6255 0.149083 3.69544
lowerneck -16.6662 -9.27751 -9.95612
upperneck -2.57636 -11.3326 10.2843
head 2.99572 -5.46975 3.80871
rclavicle -2.56432e-014 -1.55052e-014
rhumerus -42.4984 -1.08887 -82.6995
rradius 77.3481
rwrist -11.1539
rhand -32.5464 -0.738487
rfingers 7.12502
rthumb -5.77626 -30.6398
lclavicle -2.56432e-014 -1.55052e-014
lhumerus 0.833037 -31.5386 82.5468
lradius 124.193
lwrist 13.9155
lhand -23.0571 -17.1896
lfingers 7.12502
lthumb 3.388 12.7632
rfemur -65.4279 -18.5053 15.4257
rtibia 73.9487
rfoot -17.8999 -10.9924
rtoes -31.8414
lfemur -26.0776 -7.38573 -11.3142
ltibia 64.9986
lfoot -27.8071 -15.0964
ltoes -26.1292
159
root 1.71481 16.052 -22.0814 -163.726 -29.6384 174.421
lowerback 20.8614 0.906565 -5.89057
upperback 0.83326 -0.363362 0.389073
thorax -10.7843 0.0569798 3.92572
lowerneck -17.0087 -9.01149 -9.70149
upperneck -2.57111 -11.006 10.0662
head 2.98848 -5.31566 3.72684
rclavicle 3.63776e-014 1.43125e-014
rhumerus -45.9198 0.236052 -82.49
rradius 80.936
rwrist -10.6685
rhand -32.2644 0.557505
rfingers 7.12502
rthumb -5.50398 -29.351
lclavicle 3.63776e-014 1.43125e-014
lhumerus 1.79044 -29.5492 81.1656
lradius 127.062
lwrist 13.5946
lhand -23.2164 -17.015
lfingers 7.12502
lthumb 3.23412 12.9402
rfemur -67.0377 -18.4747 15.5045
rtibia 72.2863
rfoot -18.0601 -11.157
rtoes -32.1292
lfemur -24.2084 -7.31755 -11.4474
ltibia 63.1151
lfoot -28.235 -14.9107
ltoes -26.7682
